<svg width="48" height="48" viewBox="0 0 48 48" fill="none" xmlns="http://www.w3.org/2000/svg">
<circle cx="24" cy="24" r="24" fill="black"/>
<path d="M16.7686 23.8873C16.7003 25.0943 17.6086 26.1292 18.7982 26.1998H18.9159C20.0893 26.1984 21.0459 25.2445 21.0675 24.0542C21.0891 22.8638 20.1678 21.8748 18.9952 21.8297C17.8226 21.7846 16.83 22.6999 16.7627 23.8885L16.7686 23.8873Z" fill="white"/>
<path d="M8.73465 23.3332C8.35114 23.3114 8.02279 23.6091 8.00113 23.9982C7.97947 24.3873 8.2727 24.7205 8.65619 24.7427C9.03969 24.7649 9.36833 24.4676 9.39038 24.0785C9.4013 23.8913 9.33826 23.7074 9.21519 23.5675C9.09212 23.4277 8.91919 23.3433 8.73465 23.3332Z" fill="white"/>
<path d="M16.6317 11.2015C16.9732 11.0236 17.1085 10.5989 16.9344 10.2518C16.7603 9.90464 16.3423 9.76574 15.9995 9.94112C15.6567 10.1165 15.5183 10.5401 15.6899 10.8886C15.7733 11.0573 15.9197 11.1852 16.0965 11.244C16.2734 11.3027 16.466 11.2875 16.6317 11.2015Z" fill="white"/>
<path d="M18.8177 15.0686C19.3482 14.7971 19.5614 14.1407 19.2939 13.6025C19.0264 13.0642 18.3795 12.8477 17.8489 13.1189C17.3183 13.3902 17.1048 14.0464 17.372 14.5849C17.5004 14.8436 17.7249 15.0399 17.9961 15.1307C18.2672 15.2214 18.5628 15.1991 18.8177 15.0686Z" fill="white"/>
<path d="M11.461 17.729C11.7607 17.929 12.1496 17.926 12.4462 17.7215C12.7429 17.517 12.8889 17.1513 12.8161 16.795C12.7433 16.4387 12.4661 16.162 12.1137 16.094C11.7614 16.026 11.4034 16.1801 11.2067 16.4845C10.9386 16.8995 11.0524 17.4564 11.461 17.729Z" fill="white"/>
<path d="M12.7714 22.9354C12.1783 22.9014 11.6702 23.3616 11.6365 23.9634C11.6028 24.5653 12.0563 25.0809 12.6494 25.1153C13.2426 25.1496 13.7509 24.6898 13.785 24.088C13.8185 23.4858 13.3649 22.97 12.7714 22.9354Z" fill="white"/>
<path d="M11.5786 30.2754C11.1417 30.4994 10.9665 31.0403 11.1872 31.4836C11.4078 31.9269 11.9408 32.1048 12.3778 31.8811C12.8148 31.6573 12.9904 31.1166 12.77 30.6731C12.6641 30.46 12.479 30.2984 12.2555 30.2238C12.0321 30.1492 11.7886 30.1677 11.5786 30.2754Z" fill="white"/>
<path d="M15.7613 20.6786C16.3464 21.0677 17.1316 20.9019 17.5151 20.3083C17.8986 19.7147 17.7352 18.9181 17.1502 18.5289C16.5652 18.1398 15.78 18.3054 15.3964 18.8989C15.2118 19.1839 15.1466 19.5317 15.215 19.8656C15.2835 20.1995 15.48 20.492 15.7613 20.6786Z" fill="white"/>
<path d="M29.0321 14.983C29.5303 15.3127 30.1975 15.1703 30.5226 14.665C30.8477 14.1597 30.7076 13.4826 30.2097 13.1526C29.7117 12.8226 29.0444 12.9646 28.719 13.4697C28.5622 13.7124 28.5072 14.0083 28.5659 14.2923C28.6247 14.5762 28.7924 14.8248 29.0321 14.983Z" fill="white"/>
<path d="M31.2397 11.1266C31.4756 11.2835 31.7813 11.2807 32.0143 11.1196C32.2473 10.9585 32.3617 10.6708 32.304 10.3907C32.2464 10.1107 32.0281 9.89348 31.7511 9.84042C31.474 9.78737 31.1927 9.90893 31.0384 10.1484C30.8281 10.475 30.9181 10.9127 31.2397 11.1266Z" fill="white"/>
<path d="M29.2015 21.8064C28.0133 21.7371 26.9947 22.6583 26.9265 23.8638C26.8582 25.0693 27.7661 26.1028 28.9543 26.172C28.9955 26.172 29.0379 26.172 29.0791 26.172C29.9282 26.1716 30.6978 25.6652 31.0446 24.8788C31.3913 24.0924 31.2504 23.1728 30.6848 22.5302C30.3061 22.0969 29.7716 21.8361 29.2015 21.8064Z" fill="white"/>
<path d="M19.5251 20.5268C19.8899 21.2663 20.6361 21.7322 21.4511 21.7296C22.2002 21.7298 22.8956 21.3354 23.2879 20.6879C23.6802 20.0405 23.7131 19.2329 23.3747 18.5548C23.0074 17.8188 22.2619 17.3564 21.4488 17.3604C20.7021 17.3617 20.0092 17.7549 19.6174 18.3998C19.2257 19.0448 19.1907 19.8494 19.5251 20.5268Z" fill="white"/>
<path d="M36.4189 17.726C36.8558 17.5023 37.0314 16.9616 36.8111 16.5182C36.5908 16.0748 36.058 15.8964 35.6209 16.1197C35.1837 16.343 35.0076 16.8834 35.2275 17.3271C35.4481 17.7708 35.9813 17.9493 36.4189 17.726Z" fill="white"/>
<path d="M30.955 18.4229C30.3302 18.7422 30.0788 19.5149 30.3935 20.1489C30.7082 20.7828 31.4698 21.0379 32.0946 20.7186C32.7194 20.3993 32.9708 19.6266 32.6561 18.9927C32.5053 18.688 32.2412 18.4568 31.922 18.3499C31.6029 18.243 31.255 18.2693 30.955 18.4229Z" fill="white"/>
<path d="M23.9181 10.7974C24.2761 10.8181 24.6112 10.6179 24.767 10.2902C24.9228 9.96244 24.8686 9.57178 24.6297 9.30039C24.3909 9.029 24.0144 8.93035 23.6759 9.05045C23.3374 9.17055 23.1036 9.48575 23.0835 9.84901C23.056 10.3447 23.4296 10.7692 23.9181 10.7974Z" fill="white"/>
<path d="M23.9087 16.4581C24.6069 16.4978 25.2048 15.9559 25.2443 15.2474C25.2837 14.539 24.7499 13.9321 24.0516 13.8918C23.3534 13.8514 22.755 14.3928 22.7149 15.1012C22.6755 15.8103 23.2098 16.4177 23.9087 16.4581Z" fill="white"/>
<path d="M17.045 29.5774C17.5025 29.3434 17.776 28.8527 17.738 28.3343C17.6999 27.8159 17.3577 27.3718 16.8711 27.2091C16.3844 27.0465 15.8491 27.1973 15.5148 27.5913C15.1805 27.9852 15.113 28.5447 15.3439 29.0088C15.659 29.6423 16.4205 29.8968 17.045 29.5774Z" fill="white"/>
<path d="M24.7265 18.3335C24.186 19.1704 24.2745 20.2727 24.9414 21.0098C25.6084 21.7468 26.6834 21.9303 27.5513 21.4552C28.4192 20.9802 28.8584 19.9679 28.6175 18.9977C28.3767 18.0274 27.5173 17.347 26.5312 17.3457C25.8039 17.3452 25.1254 17.7166 24.7265 18.3335Z" fill="white"/>
<path d="M28.4727 27.4744C27.995 26.5133 26.8989 26.0481 25.8891 26.3779C24.8792 26.7076 24.2563 27.7342 24.4208 28.7975C24.5853 29.8608 25.4882 30.6444 26.5491 30.6444C26.8863 30.642 27.2184 30.5603 27.5191 30.4055C28.5783 29.8615 29.0046 28.5511 28.4727 27.4744Z" fill="white"/>
<path d="M32.2374 27.3213C31.6526 26.9318 30.8672 27.097 30.4833 27.6904C30.0994 28.2838 30.2623 29.0806 30.8471 29.4701C31.4319 29.8596 32.2173 29.6944 32.6012 29.101C32.9837 28.5074 32.8211 27.7116 32.2374 27.3213Z" fill="white"/>
<path d="M36.3623 24.038C36.3957 23.4362 35.9421 22.9207 35.3489 22.8866C34.7558 22.8524 34.2476 23.3124 34.2137 23.9142C34.1798 24.516 34.6331 25.0318 35.2262 25.0664C35.8197 25.1004 36.3281 24.6401 36.3623 24.038Z" fill="white"/>
<path d="M39.3434 23.26C39.062 23.2435 38.7986 23.4007 38.6759 23.6582C38.5532 23.9157 38.5955 24.2228 38.7831 24.4364C38.9706 24.6499 39.2665 24.7277 39.5327 24.6336C39.7989 24.5395 39.983 24.292 39.9992 24.0065C40.0206 23.6169 39.7274 23.283 39.3434 23.26Z" fill="white"/>
<path d="M36.5363 30.2711C36.1269 29.999 35.5775 30.1152 35.3092 30.5305C35.0409 30.9459 35.1552 31.5033 35.5645 31.7756C35.9739 32.048 36.5233 31.9322 36.7918 31.5169C36.9208 31.3174 36.9664 31.074 36.9185 30.8403C36.8706 30.6067 36.7331 30.4019 36.5363 30.2711Z" fill="white"/>
<path d="M16.759 36.8728C16.4373 36.6586 16.0053 36.7496 15.7941 37.076C15.5829 37.4024 15.6724 37.8407 15.9941 38.0551C16.3158 38.2694 16.7479 38.1786 16.9592 37.8523C17.0607 37.6955 17.0967 37.5042 17.0591 37.3205C17.0216 37.1368 16.9136 36.9758 16.759 36.8728Z" fill="white"/>
<path d="M31.3657 36.7987C31.1139 36.9275 30.9634 37.1974 30.9844 37.4826C31.0053 37.7679 31.1935 38.0122 31.4612 38.1017C31.729 38.1913 32.0235 38.1083 32.2075 37.8916C32.3914 37.6749 32.4286 37.367 32.3016 37.1117C32.2186 36.9441 32.0733 36.8168 31.8977 36.7581C31.7221 36.6994 31.5306 36.714 31.3657 36.7987Z" fill="white"/>
<path d="M23.271 29.6632C23.8115 28.8262 23.7229 27.7237 23.0558 26.9867C22.3887 26.2497 21.3135 26.0664 20.4456 26.5417C19.5778 27.0171 19.1389 28.0296 19.3801 28.9999C19.6214 29.9701 20.4812 30.6502 21.4674 30.651C22.1949 30.6535 22.8739 30.2816 23.271 29.6632Z" fill="white"/>
<path d="M18.966 33.0181C18.4688 32.6881 17.8021 32.8294 17.4767 33.3337C17.1512 33.838 17.2903 34.5145 17.7873 34.8449C18.2842 35.1752 18.951 35.0344 19.2768 34.5302C19.6021 34.0255 19.463 33.3488 18.966 33.0181Z" fill="white"/>
<path d="M23.9896 37.2026C23.5008 37.1744 23.0821 37.5535 23.0542 38.0493C23.0263 38.5452 23.3998 38.9701 23.8885 38.9985C24.3772 39.0269 24.7961 38.6481 24.8242 38.1522C24.8377 37.914 24.7574 37.6801 24.6008 37.502C24.4443 37.3239 24.2244 37.2162 23.9896 37.2026Z" fill="white"/>
<path d="M23.9989 31.5434C23.487 31.5118 23.0069 31.7965 22.7827 32.2644C22.5586 32.7324 22.6346 33.2913 22.9753 33.6801C23.316 34.069 23.8542 34.211 24.3385 34.04C24.8228 33.8689 25.1576 33.4185 25.1867 32.8991C25.2269 32.1922 24.6955 31.5857 23.9989 31.5434Z" fill="white"/>
<path d="M29.1796 32.9316C28.7909 33.1317 28.5594 33.5498 28.5931 33.9908C28.6268 34.4317 28.9192 34.8086 29.3337 34.9455C29.7482 35.0823 30.2031 34.9523 30.4862 34.6159C30.7693 34.2796 30.8247 33.8033 30.6265 33.4094C30.4973 33.1511 30.2721 32.9557 30.0007 32.866C29.7293 32.7764 29.4339 32.8 29.1796 32.9316Z" fill="white"/>
</svg>
