<svg width="516" height="215" viewBox="0 0 516 215" fill="none" xmlns="http://www.w3.org/2000/svg">
<path d="M1 -7.00023C25.9804 -9.86331 50.6469 -11.5226 75.8333 -11.3336C98.8228 -11.161 125.37 -12.0908 146.389 -0.944671C161.794 7.22465 173.746 20.2231 179.778 36.722C184.41 49.3918 185.865 63.2528 191.333 75.6664C195.948 86.1426 204.463 98.3742 212.556 106.555C226.295 120.446 248.47 128.726 267.5 131.444C287.672 134.326 308.786 130.617 329 130.055C352.63 129.399 374.469 131.335 395.111 143.778C407.921 151.498 415.977 164.371 427.389 174C440.701 185.232 459.445 191.91 475.556 197.778C501.27 207.143 527.506 211.987 554.778 214.111C572.068 215.458 589.861 214.748 607 212.111C617.412 210.509 626.437 207.769 635 201.666C643.068 195.917 651.767 190.05 654 180" stroke="white" stroke-opacity="0.25" stroke-width="0.4" stroke-linecap="round"/>
<path d="M34 -24.6521C58.9804 -27.5152 83.6469 -29.1744 108.833 -28.9854C131.823 -28.8129 158.37 -29.7427 179.389 -18.5965C194.794 -10.4272 206.746 2.57123 212.778 19.0701C217.41 31.7399 218.865 45.601 224.333 58.0146C228.948 68.4908 237.463 80.7224 245.556 88.9035C259.295 102.794 281.47 111.074 300.5 113.792C320.672 116.674 341.786 112.965 362 112.403C385.63 111.747 407.469 113.684 428.111 126.126C440.921 133.847 448.977 146.719 460.389 156.348C473.701 167.58 492.445 174.258 508.556 180.126C534.27 189.491 560.506 194.335 587.778 196.459C605.068 197.806 622.861 197.096 640 194.459C650.412 192.857 659.437 190.117 668 184.015C676.068 178.265 684.767 172.398 687 162.348" stroke="white" stroke-opacity="0.25" stroke-width="0.4" stroke-linecap="round"/>
<path d="M66 -45.6521C90.9804 -48.5152 115.647 -50.1744 140.833 -49.9854C163.823 -49.8129 190.37 -50.7427 211.389 -39.5965C226.794 -31.4272 238.746 -18.4288 244.778 -1.92986C249.41 10.7399 250.865 24.601 256.333 37.0146C260.948 47.4908 269.463 59.7224 277.556 67.9035C291.295 81.7941 313.47 90.0737 332.5 92.7924C352.672 95.6741 373.786 91.965 394 91.4035C417.63 90.7471 439.469 92.6836 460.111 105.126C472.921 112.847 480.977 125.719 492.389 135.348C505.701 146.58 524.445 153.258 540.556 159.126C566.27 168.491 592.506 173.335 619.778 175.459C637.068 176.806 654.861 176.096 672 173.459C682.412 171.857 691.437 169.117 700 163.015C708.068 157.265 716.767 151.398 719 141.348" stroke="white" stroke-opacity="0.25" stroke-width="0.4" stroke-linecap="round"/>
<path d="M88 -66.6521C112.98 -69.5152 137.647 -71.1744 162.833 -70.9854C185.823 -70.8129 212.37 -71.7427 233.389 -60.5965C248.794 -52.4272 260.746 -39.4288 266.778 -22.9299C271.41 -10.2601 272.865 3.60095 278.333 16.0146C282.948 26.4908 291.463 38.7224 299.556 46.9035C313.295 60.7941 335.47 69.0737 354.5 71.7924C374.672 74.6741 395.786 70.965 416 70.4035C439.63 69.7471 461.469 71.6836 482.111 84.1257C494.921 91.8466 502.977 104.719 514.389 114.348C527.701 125.58 546.445 132.258 562.556 138.126C588.27 147.491 614.506 152.335 641.778 154.459C659.068 155.806 676.861 155.096 694 152.459C704.412 150.857 713.437 148.117 722 142.015C730.068 136.265 738.767 130.398 741 120.348" stroke="white" stroke-opacity="0.25" stroke-width="0.4" stroke-linecap="round"/>
<path d="M105 -82.0002C129.98 -84.8633 154.647 -86.5226 179.833 -86.3336C202.823 -86.161 229.37 -87.0908 250.389 -75.9447C265.794 -67.7753 277.746 -54.7769 283.778 -38.278C288.41 -25.6082 289.865 -11.7472 295.333 0.666443C299.948 11.1426 308.463 23.3742 316.556 31.5553C330.295 45.4459 352.47 53.7256 371.5 56.4442C391.672 59.3259 412.786 55.6168 433 55.0553C456.63 54.3989 478.469 56.3355 499.111 68.7776C511.921 76.4985 519.977 89.3706 531.389 98.9998C544.701 110.232 563.445 116.91 579.556 122.778C605.27 132.143 631.506 136.987 658.778 139.111C676.068 140.458 693.861 139.748 711 137.111C721.412 135.509 730.437 132.769 739 126.666C747.068 120.917 755.767 115.05 758 105" stroke="white" stroke-opacity="0.25" stroke-width="0.4" stroke-linecap="round"/>
<path d="M138 -99.6521C162.98 -102.515 187.647 -104.174 212.833 -103.985C235.823 -103.813 262.37 -104.743 283.389 -93.5965C298.794 -85.4272 310.746 -72.4288 316.778 -55.9299C321.41 -43.2601 322.865 -29.399 328.333 -16.9854C332.948 -6.50923 341.463 5.72239 349.556 13.9035C363.295 27.7941 385.47 36.0737 404.5 38.7924C424.672 41.6741 445.786 37.965 466 37.4035C489.63 36.7471 511.469 38.6836 532.111 51.1257C544.921 58.8466 552.977 71.7188 564.389 81.3479C577.701 92.5802 596.445 99.2584 612.556 105.126C638.27 114.491 664.506 119.335 691.778 121.459C709.068 122.806 726.861 122.096 744 119.459C754.412 117.857 763.437 115.117 772 109.015C780.068 103.265 788.767 97.3984 791 87.3479" stroke="white" stroke-opacity="0.25" stroke-width="0.4" stroke-linecap="round"/>
<path d="M170 -120.652C194.98 -123.515 219.647 -125.174 244.833 -124.985C267.823 -124.813 294.37 -125.743 315.389 -114.597C330.794 -106.427 342.746 -93.4288 348.778 -76.9299C353.41 -64.2601 354.865 -50.399 360.333 -37.9854C364.948 -27.5092 373.463 -15.2776 381.556 -7.09653C395.295 6.79407 417.47 15.0737 436.5 17.7924C456.672 20.6741 477.786 16.965 498 16.4035C521.63 15.7471 543.469 17.6836 564.111 30.1257C576.921 37.8466 584.977 50.7188 596.389 60.3479C609.701 71.5802 628.445 78.2584 644.556 84.1257C670.27 93.4909 696.506 98.3349 723.778 100.459C741.068 101.806 758.861 101.096 776 98.459C786.412 96.8572 795.437 94.1168 804 88.0146C812.068 82.265 820.767 76.3984 823 66.3479" stroke="white" stroke-opacity="0.25" stroke-width="0.4" stroke-linecap="round"/>
<path d="M192 -141.652C216.98 -144.515 241.647 -146.174 266.833 -145.985C289.823 -145.813 316.37 -146.743 337.389 -135.597C352.794 -127.427 364.746 -114.429 370.778 -97.9299C375.41 -85.2601 376.865 -71.399 382.333 -58.9854C386.948 -48.5092 395.463 -36.2776 403.556 -28.0965C417.295 -14.2059 439.47 -5.92625 458.5 -3.20764C478.672 -0.325937 499.786 -4.03504 520 -4.59653C543.63 -5.25291 565.469 -3.31637 586.111 9.1257C598.921 16.8466 606.977 29.7188 618.389 39.3479C631.701 50.5802 650.445 57.2584 666.556 63.1257C692.27 72.4909 718.506 77.3349 745.778 79.459C763.068 80.8058 780.861 80.0958 798 77.459C808.412 75.8572 817.437 73.1168 826 67.0146C834.068 61.265 842.767 55.3984 845 45.3479" stroke="white" stroke-opacity="0.25" stroke-width="0.4" stroke-linecap="round"/>
</svg>
